<?xml version="1.0" encoding="utf-8"?>
<!-- Generator: Adobe Illustrator 26.1.0, SVG Export Plug-In . SVG Version: 6.00 Build 0)  -->
<svg version="1.1" id="Layer_1" xmlns="http://www.w3.org/2000/svg" xmlns:xlink="http://www.w3.org/1999/xlink" x="0px" y="0px"
	 viewBox="0 0 125 40" style="enable-background:new 0 0 125 40;" xml:space="preserve">
<path d="M13.3,30c0,1.9,0,3.9,0,5.8c0,0.3,0,0.7-0.1,1c-0.1,0.4-0.4,0.7-0.9,0.7s-0.8-0.3-0.9-0.7c-0.1-0.4-0.1-0.7-0.1-1.1
	c0-1.9,0-3.8,0-5.7c-0.5,0.1-0.5,0.5-0.7,0.8c-1,1.8-1.9,3.7-2.9,5.5c-0.1,0.2-0.2,0.4-0.3,0.7c-0.2,0.4-0.6,0.7-1.1,0.6
	c-0.5-0.1-0.7-0.5-0.8-1c-0.3-1.9-0.7-3.7-1-5.6C3.2,22,1.6,13.2,0.1,4.5C-0.2,2.9,0,2.6,1.6,2.6c7.2,0,14.4,0,21.6,0
	c1.5,0,1.7,0.3,1.5,1.8c-1.8,10.3-3.6,20.6-5.4,30.9c-0.1,0.4-0.2,0.9-0.2,1.3c-0.1,0.4-0.3,0.8-0.8,0.9c-0.5,0.1-0.8-0.2-1-0.5
	c-0.4-0.7-0.8-1.5-1.2-2.2c-0.8-1.6-1.7-3.2-2.5-4.8C13.5,29.9,13.4,30,13.3,30z M2.5,4.6c3,5.7,5.8,11.2,8.7,16.6
	c0.1,0,0.1,0,0.2-0.1c0-5.5,0-11.1,0-16.6C8.4,4.6,5.6,4.6,2.5,4.6z M13.4,21.1c0.1,0,0.1,0,0.2,0c2.9-5.5,5.7-11,8.7-16.6
	c-3.1,0-5.9,0-8.9,0C13.4,10.1,13.4,15.6,13.4,21.1z M3.1,9.8L3.1,9.8C4.3,17.7,5.7,25.5,7,33.3c0.1,0,0.2,0,0.3,0
	c1.3-2.6,2.7-5.2,4-7.8C8.6,20.3,5.9,15,3.1,9.8z M21.8,9.9c-0.1,0-0.1,0-0.2-0.1c-2.7,5.2-5.4,10.4-8.2,15.6
	c1.4,2.6,2.7,5.2,4.1,7.8c0.1,0,0.2-0.1,0.2-0.1C19.1,25.5,20.4,17.7,21.8,9.9z"/>
<path d="M48.5,27.9c-0.3,0.3-0.5,0.3-0.7,0.3s-0.3,0-0.5-0.2c0-3.6,0-7.2,0-10.9c0.1,0,0.1-0.1,0.2-0.1c1.6,2.4,3.3,4.9,4.9,7.4
	c1.7-2.6,3.3-5,4.9-7.4c0.1,0,0.1,0,0.2,0.1c0,3.7,0,7.3,0,11c-0.4,0.2-0.7,0.2-1.2,0c0-2.2,0-4.4,0-6.6c-0.1,0-0.2-0.1-0.3-0.1
	c-1.2,1.8-2.4,3.6-3.7,5.5c-1.3-1.9-2.5-3.7-3.7-5.5c-0.1,0-0.2,0.1-0.2,0.1C48.5,23.6,48.5,25.8,48.5,27.9z"/>
<path d="M56.3,10.2c0-2.2,0-4.4,0-6.5c0.4-0.3,0.8-0.3,1.2-0.1c0,3.6,0,7.3,0,10.9c-0.1,0-0.1,0.1-0.2,0.1c-1.6-2.4-3.2-4.8-4.9-7.4
	c-1.7,2.6-3.4,5.1-5.2,7.8c0-4,0-7.7,0-11.5c0.4-0.2,0.8-0.2,1.3,0.1c0,2.2,0,4.4,0,6.6c0.1,0,0.2,0.1,0.3,0.1
	c1.2-1.8,2.4-3.6,3.7-5.5c1.3,1.9,2.4,3.7,3.6,5.4C56.2,10.3,56.3,10.2,56.3,10.2z"/>
<path d="M60.2,17.1c1.6,0.6,3.3,0.2,4.9,0.3c2.1,0.1,3.4,1.9,3,3.8c-0.3,1.2-1.2,2.1-2.4,2.3c-0.3,0.1-0.7,0.1-1,0.1
	c-0.5,0-1.1,0.1-1.6-0.1c-0.2-0.4-0.2-0.7,0-1.1c0.6-0.1,1.2,0,1.8-0.1c1.2-0.1,1.9-0.7,2-1.8c0-1.1-0.8-1.9-2-1.9
	c-0.9,0-1.9-0.1-3,0.1c0,1.6,0,3.1,0,4.7c0,1.5,0,3,0,4.5c-0.4,0.3-0.8,0.2-1.2,0.1c-0.2-0.5-0.1-1.1-0.1-1.6c0-2.5,0-5,0-7.4
	C60.5,18.3,60.6,17.7,60.2,17.1z"/>
<path d="M77,3.7c0.4-0.1,0.7-0.2,1.1,0c0.2,1.3,0,2.8,0.2,4.2c1.7,0,3.3,0,5.1,0c0.3-1.4,0-2.8,0.2-4.2c0.3-0.3,0.7-0.2,1.1-0.2
	c0,1.9,0,3.7,0,5.7c-2.1,0-4.2,0-6.3,0c-0.2,1.7,0,3.2-0.1,4.8c-0.4,0.3-0.7,0.2-1.2,0.1C77,10.6,77,7.1,77,3.7z"/>
<path d="M116.7,16.6c2.6,3.1,5,6,7.5,8.9c0.7,0.8,1,1.6,0.8,2.9c-2.3-2.8-4.5-5.4-6.8-8.1c-0.1,0-0.2,0-0.3,0.1
	c-0.1,2.5,0,4.9,0,7.4c-0.4,0.3-0.7,0.2-1.2,0.1C116.7,24.3,116.7,20.6,116.7,16.6z"/>
<path d="M94.5,14c-0.6,0.1-0.9,0.2-1.3,0c0-3.6,0-7.3,0-10.9c0.4-0.1,0.5,0.3,0.7,0.5c2.4,2.8,4.7,5.7,7.2,8.5
	c0.6,0.7,0.7,1.4,0.4,2.5c-2.3-2.8-4.5-5.4-6.8-8c-0.1,0-0.2,0-0.2,0.1C94.5,9.1,94.5,11.5,94.5,14z"/>
<path d="M84.1,20c-1.3,2.9-2.5,5.5-3.7,8c-0.5,0.2-0.9,0.2-1.4-0.1c1.7-3.6,3.3-7.2,5.1-11c1.8,3.8,3.4,7.4,5.1,11
	c-0.5,0.3-0.9,0.2-1.4,0.1C86.6,25.5,85.4,22.9,84.1,20z"/>
<path d="M44.1,18.7c-2,0-3.9,0-5.9,0c-0.2,1.2-0.1,2.2-0.1,3.4c1.5,0.2,2.9,0,4.3,0.1c0.4,0.4,0.3,0.7,0.1,1.1c-1.8,0-3.7,0-5.6,0
	c0-1.9,0-3.8,0-5.8c2.3,0,4.6,0,6.9,0C44.2,17.8,44,18.1,44.1,18.7z"/>
<path d="M112.7,20.4c0.3-0.2,0.5-0.5,0.8-0.7c0.7,0.6,0.9,1.4,1,2.2c0.4,2.1-0.6,4.3-2.3,5.5c-1.9,1.2-4.2,1.1-6-0.2
	c0-0.4,0.4-0.6,0.7-0.9c1.8,0.9,3.6,1,5.2-0.5C113.5,24.4,113.7,22.7,112.7,20.4z"/>
<path d="M105.7,25.1c-0.2,0.4-0.4,0.6-0.8,0.8c-0.5-0.4-0.7-1-0.9-1.7c-0.6-2.3,0.3-4.7,2.3-5.9c1.9-1.2,4.8-1,6,0.3
	c-0.1,0.1-0.2,0.3-0.3,0.4c-0.1,0.1-0.3,0.3-0.5,0.4c-1.9-1-3.7-1-5.2,0.5C104.8,21.4,104.8,23.2,105.7,25.1z"/>
<path d="M70.7,31.4c0.6,1.9,1.3,3.7,2,5.6c-0.4,0.3-0.8,0.2-1.2,0.1c-0.3-0.3-0.2-0.8-0.6-1.1c-0.4,0-0.8-0.1-1.3-0.1
	c-0.3-1,0.5-0.9,1-1c0-0.7-0.3-1.2-0.4-2.1c-0.8,1.5-0.9,3-1.5,4.3c-0.4,0.2-0.8,0.1-1.3,0.1c0.5-2,1.3-3.9,1.9-5.8
	C69.7,31.3,70.2,31.3,70.7,31.4z"/>
<path d="M100.4,17.6c0.4-0.2,0.7-0.2,1.1,0c0,3.5,0,6.9,0,10.4c-0.3,0.3-0.7,0.2-1.1,0C100.4,24.5,100.4,21,100.4,17.6z"/>
<path d="M88.3,3.7c0.4-0.2,0.7-0.1,1.1,0c0,3.5,0,7,0,10.4c-0.3,0.2-0.7,0.2-1.1,0.1C88.3,10.6,88.3,7.1,88.3,3.7z"/>
<path d="M62.1,14c-0.3,0.2-0.7,0.2-1,0.1c-0.3-0.3-0.4-8.3-0.1-10.5c0.1-0.2,0.4-0.2,0.6-0.2c0.2,0,0.3,0,0.6,0.1
	C62.1,7,62.1,10.5,62.1,14z"/>
<path d="M70,17.5c3.1,0,6.1,0,9.1,0c0.3,0.4,0.2,0.7,0.1,1.1c-3,0-6.1,0-9.1,0C69.8,18.3,69.9,17.9,70,17.5z"/>
<path d="M98.5,17.5c0.2,0.3,0.2,0.7,0.1,1.1c-3.1,0-6.1,0-9.2,0c-0.2-0.3-0.1-0.7-0.1-1.1C92.4,17.5,95.4,17.5,98.5,17.5z"/>
<path d="M33.7,17.5c0.2,0.4,0.2,0.7,0.1,1.1c-3.1,0-6.1,0-9.1,0c-0.3-0.4-0.2-0.7-0.1-1.1C27.6,17.5,30.6,17.5,33.7,17.5z"/>
<path d="M65.2,4.7C65,4.4,65,4.1,65.1,3.6c2.9,0,5.8,0,8.8,0c0.3,0.3,0.2,0.7,0,1.1C71.1,4.7,68.2,4.7,65.2,4.7z"/>
<path d="M69,6.1c0.4-0.1,0.8-0.2,1.1,0.1c0,2.6,0,5.2,0,7.8c-0.4,0.2-0.7,0.2-1.1,0C69,11.4,69,8.8,69,6.1z"/>
<path d="M29.7,28c-0.4,0.2-0.7,0.2-1.1,0c0-2.6,0-5.3,0-8c0.3-0.3,0.6-0.1,1.1-0.2C29.7,22.6,29.7,25.3,29.7,28z"/>
<path d="M75.1,19.9c0,2.8,0,5.4,0,8.1c-0.4,0.2-0.7,0.2-1.1,0c0-2.7,0-5.3,0-7.9C74.3,19.8,74.7,19.9,75.1,19.9z"/>
<path d="M94.5,28c-0.4,0.2-0.7,0.2-1.1,0c0-2.6,0-5.3,0-7.9c0.3-0.3,0.6-0.2,1.1-0.1C94.5,22.6,94.5,25.3,94.5,28z"/>
<path d="M36,28.1c0.4-0.9,0.9-1.2,1.8-1.2c2,0.1,4,0,6,0c0.3,0.4,0.2,0.8,0.1,1.2C41.3,28.1,38.7,28.1,36,28.1z"/>
<path d="M101.6,10.9c-0.8-0.7-1.2-1.3-1.2-2.3c0.1-1.6,0-3.3,0-4.9c0.4-0.4,0.7-0.3,1.2-0.2C101.6,5.9,101.6,8.3,101.6,10.9z"/>
<path d="M56.7,37.1c-1.7-0.4-2.6-1.4-2.6-3s0.8-2.5,2.6-2.8c0.3,0.5,0.2,0.7-0.3,1.1c-1.2,0.9-1.2,2.6-0.1,3.5
	C56.7,36.3,56.7,36.3,56.7,37.1z"/>
<path d="M123.7,17.5c0.5-0.2,0.8-0.2,1.2-0.1c0,2.4,0,4.8,0,7.3c-0.9-0.6-1.3-1.3-1.2-2.4C123.8,20.7,123.7,19.1,123.7,17.5z"/>
<path d="M28.2,37c-0.3-0.6,0-0.8,0.4-1.1c1.3-0.9,1.3-2.6,0-3.5c-0.5-0.3-0.7-0.6-0.5-1.1c1.6,0.1,2.5,1,2.6,2.6
	C30.8,35.8,30,36.7,28.2,37z"/>
<path d="M27.6,37c-1.7-0.3-2.5-1.2-2.6-2.8c0-1.6,0.8-2.6,2.6-3c0.2,0.5,0.1,0.8-0.4,1.2c-1.3,0.9-1.3,2.6,0,3.5
	C27.7,36.2,27.8,36.5,27.6,37z"/>
<path d="M50.5,37.1c-0.4,0-0.7,0-1,0c0-1.9,0-3.8,0-5.7c0.3-0.2,0.6-0.1,1-0.1C50.5,33.3,50.5,35.1,50.5,37.1z"/>
<path d="M43.1,31.4c0,1.9,0,3.8,0,5.6c-0.4,0.3-0.7,0.2-1.1,0.1c0-1.9,0-3.7,0-5.6C42.3,31.2,42.7,31.3,43.1,31.4z"/>
<path d="M62.8,31.4c0.4,0,0.7,0,1,0c0,1.9,0,3.8,0,5.7c-0.3,0.2-0.6,0.1-1,0.1C62.8,35.2,62.8,33.4,62.8,31.4z"/>
<path d="M76,31.5c0.3-0.2,0.6-0.1,1-0.1c0,1.9,0,3.8,0,5.7c-0.3,0.2-0.6,0.1-1,0.1C76,35.2,76,33.4,76,31.5z"/>
<path d="M35.6,31.4c0,1.9,0,3.8,0,5.6c-0.3,0.3-0.7,0.1-1.1,0.2c0-1.9,0-3.8,0-5.7C34.8,31.2,35.2,31.3,35.6,31.4z"/>
<path d="M84.7,14c-0.4,0.2-0.7,0.2-1.1,0.1c-0.1-1.1-0.1-2.3,0-3.4c0.4-0.3,0.7-0.2,1.1,0C84.8,11.8,84.7,12.9,84.7,14z"/>
<path d="M57.2,37c-0.2-0.4-0.2-0.7,0.2-0.9c0.6-0.3,1-1.4,2-0.8C59.1,36.5,58.7,36.9,57.2,37z"/>
<path d="M38.6,31.4c0,0.3,0.1,0.6-0.1,0.9c-0.8,0-1.6,0-2.4,0c-0.2-0.3-0.2-0.5,0-0.9C36.9,31.4,37.7,31.4,38.6,31.4z"/>
<path d="M59.4,32.9c-0.4,0.2-0.7,0.3-1.1,0.2c-0.1-0.7-1.4-0.6-1.1-1.7C58.2,31.4,59,31.8,59.4,32.9z"/>
<path d="M46,31.4c0,0.3,0.1,0.6-0.1,0.9c-0.8,0-1.6,0-2.4,0c-0.2-0.3-0.2-0.5,0-0.9C44.3,31.4,45.1,31.4,46,31.4z"/>
<path d="M77.5,37.2c-0.1-0.3-0.2-0.6,0-0.9c0.7-0.1,1.5-0.1,2.1,0c0.3,0.3,0.2,0.5,0.2,0.8C79.1,37.3,78.3,37.2,77.5,37.2z"/>
<path d="M38.1,34.7c-0.7,0-1.3,0-1.9,0c-0.2-0.3-0.2-0.5,0-0.9c0.6,0,1.3-0.1,2,0C38.2,34.2,38.2,34.4,38.1,34.7z"/>
<path d="M43.5,34.7c-0.1-0.4-0.1-0.6,0-0.9c0.7-0.1,1.4-0.1,2,0c0.2,0.3,0.2,0.5,0,0.8C44.9,34.8,44.2,34.7,43.5,34.7z"/>
<path d="M93.3,37.1l-2-6.1h0.8l0.9,3c0.3,0.8,0.5,1.6,0.6,2.3h0c0.2-0.7,0.4-1.5,0.7-2.3l1-3h0.8l-2.2,6.1H93.3z"/>
<path d="M98.8,31.1v6.1h-0.8v-6.1H98.8z"/>
<path d="M101.2,31.2c0.5-0.1,1-0.1,1.7-0.1c1.1,0,1.9,0.3,2.5,0.8c0.5,0.5,0.9,1.2,0.9,2.2c0,1-0.3,1.8-0.9,2.4
	c-0.6,0.6-1.5,0.9-2.7,0.9c-0.6,0-1,0-1.4-0.1V31.2z M102,36.5c0.2,0,0.5,0,0.8,0c1.7,0,2.6-0.9,2.6-2.6c0-1.4-0.8-2.3-2.5-2.3
	c-0.4,0-0.7,0-0.9,0.1V36.5z"/>
<path d="M111.9,36.1c0.2,0.4,0.2,0.6,0,0.9c-0.8,0.1-1.6,0.1-2.3,0c-0.3-0.3-0.2-0.5-0.1-0.8C110.2,35.9,111,36.1,111.9,36.1z"/>
<path d="M111.9,31.2c0.2,0.3,0.1,0.6,0,0.9c-0.8,0.1-1.6,0.1-2.3,0c-0.3-0.3-0.2-0.5-0.1-0.8C110.2,31.1,111,31.3,111.9,31.2z"/>
<path d="M107.9,36.8c0-1.9,0-3.7,0-5.6c0.3-0.2,0.7-0.1,1.1-0.1c0,1.9,0,3.8,0,5.8C108.6,37,108.2,37.1,107.9,36.8z"/>
<path d="M109.6,34.6c-0.2-0.3-0.2-0.5-0.1-0.8c0.7-0.2,1.4-0.1,2.1-0.1c0.2,0.3,0.2,0.6,0,0.9C111,34.6,110.3,34.6,109.6,34.6z"/>
<path d="M116.4,37c-0.2-0.5-0.1-0.8,0.3-1.1c1.5-1.2,1.5-2.7,0-4c-0.3-0.2-0.3-0.2-0.3-1c1.5,0,2.5,1,2.6,2.6
	C119.1,35.6,118.3,36.7,116.4,37z"/>
<path d="M115.8,37.1c-1.8-0.4-2.6-1.5-2.6-3.3c0.1-1.7,0.9-2.7,2.6-3.1c0.2,0.5,0.1,0.9-0.3,1.2c-1.3,1.1-1.3,2.8,0,3.8
	C115.9,36.3,116,36.6,115.8,37.1z"/>
</svg>
